<mxfile host="app.diagrams.net" modified="2023-09-28T06:41:13.113Z" agent="Mozilla/5.0 (Windows NT 10.0; Win64; x64) AppleWebKit/537.36 (KHTML, like Gecko) Chrome/117.0.0.0 Safari/537.36" version="21.8.2" etag="gLJoP5ZrgGjL3ab3YUQV" type="github">
  <diagram name="Page-1" id="nRij8-wQ7stwnICvw5Bo">
    <mxGraphModel>
      <root>
        <mxCell id="0" />
        <mxCell id="1" parent="0" />
      </root>
    </mxGraphModel>
  </diagram>
</mxfile>
